<mxfile host="app.diagrams.net" modified="2021-12-29T01:53:38.220Z" agent="5.0 (Windows NT 10.0; Win64; x64) AppleWebKit/537.36 (KHTML, like Gecko) Chrome/96.0.4664.110 Safari/537.36 Edg/96.0.1054.62" etag="xu-mn4bivAulVFSgodT_" version="15.8.6" type="github">
  <diagram id="C5RBs43oDa-KdzZeNtuy" name="Page-1">
    <mxGraphModel dx="868" dy="1651" grid="1" gridSize="10" guides="1" tooltips="1" connect="1" arrows="1" fold="1" page="1" pageScale="1" pageWidth="827" pageHeight="1169" math="0" shadow="0">
      <root>
        <mxCell id="WIyWlLk6GJQsqaUBKTNV-0" />
        <mxCell id="WIyWlLk6GJQsqaUBKTNV-1" parent="WIyWlLk6GJQsqaUBKTNV-0" />
        <mxCell id="Q7qjtp1x8WxKevpJag3L-6" value="Manager" style="swimlane;fontStyle=1;align=center;verticalAlign=top;childLayout=stackLayout;horizontal=1;startSize=26;horizontalStack=0;resizeParent=1;resizeParentMax=0;resizeLast=0;collapsible=1;marginBottom=0;" parent="WIyWlLk6GJQsqaUBKTNV-1" vertex="1">
          <mxGeometry x="280" y="-70" width="160" height="138" as="geometry" />
        </mxCell>
        <mxCell id="T5A34cYK0QaYjGAUa2mt-0" value="-id: int" style="text;strokeColor=none;fillColor=none;align=left;verticalAlign=top;spacingLeft=4;spacingRight=4;overflow=hidden;rotatable=0;points=[[0,0.5],[1,0.5]];portConstraint=eastwest;" parent="Q7qjtp1x8WxKevpJag3L-6" vertex="1">
          <mxGeometry y="26" width="160" height="26" as="geometry" />
        </mxCell>
        <mxCell id="Q7qjtp1x8WxKevpJag3L-7" value="-name: string" style="text;strokeColor=none;fillColor=none;align=left;verticalAlign=top;spacingLeft=4;spacingRight=4;overflow=hidden;rotatable=0;points=[[0,0.5],[1,0.5]];portConstraint=eastwest;" parent="Q7qjtp1x8WxKevpJag3L-6" vertex="1">
          <mxGeometry y="52" width="160" height="26" as="geometry" />
        </mxCell>
        <mxCell id="Q7qjtp1x8WxKevpJag3L-18" value="-email: string" style="text;strokeColor=none;fillColor=none;align=left;verticalAlign=top;spacingLeft=4;spacingRight=4;overflow=hidden;rotatable=0;points=[[0,0.5],[1,0.5]];portConstraint=eastwest;" parent="Q7qjtp1x8WxKevpJag3L-6" vertex="1">
          <mxGeometry y="78" width="160" height="26" as="geometry" />
        </mxCell>
        <mxCell id="Q7qjtp1x8WxKevpJag3L-8" value="" style="line;strokeWidth=1;fillColor=none;align=left;verticalAlign=middle;spacingTop=-1;spacingLeft=3;spacingRight=3;rotatable=0;labelPosition=right;points=[];portConstraint=eastwest;" parent="Q7qjtp1x8WxKevpJag3L-6" vertex="1">
          <mxGeometry y="104" width="160" height="8" as="geometry" />
        </mxCell>
        <mxCell id="Q7qjtp1x8WxKevpJag3L-9" value="+updateCatalog(): bool" style="text;strokeColor=none;fillColor=none;align=left;verticalAlign=top;spacingLeft=4;spacingRight=4;overflow=hidden;rotatable=0;points=[[0,0.5],[1,0.5]];portConstraint=eastwest;" parent="Q7qjtp1x8WxKevpJag3L-6" vertex="1">
          <mxGeometry y="112" width="160" height="26" as="geometry" />
        </mxCell>
        <mxCell id="Q7qjtp1x8WxKevpJag3L-10" value="guest" style="swimlane;fontStyle=1;align=center;verticalAlign=top;childLayout=stackLayout;horizontal=1;startSize=26;horizontalStack=0;resizeParent=1;resizeParentMax=0;resizeLast=0;collapsible=1;marginBottom=0;" parent="WIyWlLk6GJQsqaUBKTNV-1" vertex="1">
          <mxGeometry x="20" y="-80" width="160" height="242" as="geometry" />
        </mxCell>
        <mxCell id="Q7qjtp1x8WxKevpJag3L-11" value="-customerName: string" style="text;strokeColor=none;fillColor=none;align=left;verticalAlign=top;spacingLeft=4;spacingRight=4;overflow=hidden;rotatable=0;points=[[0,0.5],[1,0.5]];portConstraint=eastwest;" parent="Q7qjtp1x8WxKevpJag3L-10" vertex="1">
          <mxGeometry y="26" width="160" height="26" as="geometry" />
        </mxCell>
        <mxCell id="Q7qjtp1x8WxKevpJag3L-17" value="-address: string" style="text;strokeColor=none;fillColor=none;align=left;verticalAlign=top;spacingLeft=4;spacingRight=4;overflow=hidden;rotatable=0;points=[[0,0.5],[1,0.5]];portConstraint=eastwest;" parent="Q7qjtp1x8WxKevpJag3L-10" vertex="1">
          <mxGeometry y="52" width="160" height="26" as="geometry" />
        </mxCell>
        <mxCell id="Q7qjtp1x8WxKevpJag3L-19" value="-email: string" style="text;strokeColor=none;fillColor=none;align=left;verticalAlign=top;spacingLeft=4;spacingRight=4;overflow=hidden;rotatable=0;points=[[0,0.5],[1,0.5]];portConstraint=eastwest;" parent="Q7qjtp1x8WxKevpJag3L-10" vertex="1">
          <mxGeometry y="78" width="160" height="26" as="geometry" />
        </mxCell>
        <mxCell id="Q7qjtp1x8WxKevpJag3L-21" value="-creditCardInfo: string" style="text;strokeColor=none;fillColor=none;align=left;verticalAlign=top;spacingLeft=4;spacingRight=4;overflow=hidden;rotatable=0;points=[[0,0.5],[1,0.5]];portConstraint=eastwest;" parent="Q7qjtp1x8WxKevpJag3L-10" vertex="1">
          <mxGeometry y="104" width="160" height="26" as="geometry" />
        </mxCell>
        <mxCell id="Q7qjtp1x8WxKevpJag3L-20" value="-accountBalance: float" style="text;strokeColor=none;fillColor=none;align=left;verticalAlign=top;spacingLeft=4;spacingRight=4;overflow=hidden;rotatable=0;points=[[0,0.5],[1,0.5]];portConstraint=eastwest;" parent="Q7qjtp1x8WxKevpJag3L-10" vertex="1">
          <mxGeometry y="130" width="160" height="26" as="geometry" />
        </mxCell>
        <mxCell id="Q7qjtp1x8WxKevpJag3L-12" value="" style="line;strokeWidth=1;fillColor=none;align=left;verticalAlign=middle;spacingTop=-1;spacingLeft=3;spacingRight=3;rotatable=0;labelPosition=right;points=[];portConstraint=eastwest;" parent="Q7qjtp1x8WxKevpJag3L-10" vertex="1">
          <mxGeometry y="156" width="160" height="8" as="geometry" />
        </mxCell>
        <mxCell id="Q7qjtp1x8WxKevpJag3L-13" value="+register()" style="text;strokeColor=none;fillColor=none;align=left;verticalAlign=top;spacingLeft=4;spacingRight=4;overflow=hidden;rotatable=0;points=[[0,0.5],[1,0.5]];portConstraint=eastwest;" parent="Q7qjtp1x8WxKevpJag3L-10" vertex="1">
          <mxGeometry y="164" width="160" height="26" as="geometry" />
        </mxCell>
        <mxCell id="Q7qjtp1x8WxKevpJag3L-22" value="+login()" style="text;strokeColor=none;fillColor=none;align=left;verticalAlign=top;spacingLeft=4;spacingRight=4;overflow=hidden;rotatable=0;points=[[0,0.5],[1,0.5]];portConstraint=eastwest;" parent="Q7qjtp1x8WxKevpJag3L-10" vertex="1">
          <mxGeometry y="190" width="160" height="26" as="geometry" />
        </mxCell>
        <mxCell id="Q7qjtp1x8WxKevpJag3L-23" value="+updateProfile()" style="text;strokeColor=none;fillColor=none;align=left;verticalAlign=top;spacingLeft=4;spacingRight=4;overflow=hidden;rotatable=0;points=[[0,0.5],[1,0.5]];portConstraint=eastwest;" parent="Q7qjtp1x8WxKevpJag3L-10" vertex="1">
          <mxGeometry y="216" width="160" height="26" as="geometry" />
        </mxCell>
        <mxCell id="T5A34cYK0QaYjGAUa2mt-2" value="" style="endArrow=none;html=1;rounded=0;" parent="WIyWlLk6GJQsqaUBKTNV-1" source="Q7qjtp1x8WxKevpJag3L-19" edge="1">
          <mxGeometry width="50" height="50" relative="1" as="geometry">
            <mxPoint x="180" y="61" as="sourcePoint" />
            <mxPoint x="280" y="11" as="targetPoint" />
          </mxGeometry>
        </mxCell>
        <mxCell id="T5A34cYK0QaYjGAUa2mt-9" value="Room" style="swimlane;fontStyle=1;align=center;verticalAlign=top;childLayout=stackLayout;horizontal=1;startSize=26;horizontalStack=0;resizeParent=1;resizeParentMax=0;resizeLast=0;collapsible=1;marginBottom=0;" parent="WIyWlLk6GJQsqaUBKTNV-1" vertex="1">
          <mxGeometry x="280" y="130" width="160" height="86" as="geometry" />
        </mxCell>
        <mxCell id="T5A34cYK0QaYjGAUa2mt-10" value="+room No: int" style="text;strokeColor=none;fillColor=none;align=left;verticalAlign=top;spacingLeft=4;spacingRight=4;overflow=hidden;rotatable=0;points=[[0,0.5],[1,0.5]];portConstraint=eastwest;" parent="T5A34cYK0QaYjGAUa2mt-9" vertex="1">
          <mxGeometry y="26" width="160" height="26" as="geometry" />
        </mxCell>
        <mxCell id="T5A34cYK0QaYjGAUa2mt-13" value="+location: string" style="text;strokeColor=none;fillColor=none;align=left;verticalAlign=top;spacingLeft=4;spacingRight=4;overflow=hidden;rotatable=0;points=[[0,0.5],[1,0.5]];portConstraint=eastwest;" parent="T5A34cYK0QaYjGAUa2mt-9" vertex="1">
          <mxGeometry y="52" width="160" height="26" as="geometry" />
        </mxCell>
        <mxCell id="T5A34cYK0QaYjGAUa2mt-11" value="" style="line;strokeWidth=1;fillColor=none;align=left;verticalAlign=middle;spacingTop=-1;spacingLeft=3;spacingRight=3;rotatable=0;labelPosition=right;points=[];portConstraint=eastwest;" parent="T5A34cYK0QaYjGAUa2mt-9" vertex="1">
          <mxGeometry y="78" width="160" height="8" as="geometry" />
        </mxCell>
        <mxCell id="T5A34cYK0QaYjGAUa2mt-14" value="Receptionist" style="swimlane;fontStyle=1;align=center;verticalAlign=top;childLayout=stackLayout;horizontal=1;startSize=26;horizontalStack=0;resizeParent=1;resizeParentMax=0;resizeLast=0;collapsible=1;marginBottom=0;" parent="WIyWlLk6GJQsqaUBKTNV-1" vertex="1">
          <mxGeometry x="530" y="-80" width="160" height="242" as="geometry" />
        </mxCell>
        <mxCell id="T5A34cYK0QaYjGAUa2mt-15" value="+ id: int" style="text;strokeColor=none;fillColor=none;align=left;verticalAlign=top;spacingLeft=4;spacingRight=4;overflow=hidden;rotatable=0;points=[[0,0.5],[1,0.5]];portConstraint=eastwest;" parent="T5A34cYK0QaYjGAUa2mt-14" vertex="1">
          <mxGeometry y="26" width="160" height="26" as="geometry" />
        </mxCell>
        <mxCell id="T5A34cYK0QaYjGAUa2mt-20" value="+name: string" style="text;strokeColor=none;fillColor=none;align=left;verticalAlign=top;spacingLeft=4;spacingRight=4;overflow=hidden;rotatable=0;points=[[0,0.5],[1,0.5]];portConstraint=eastwest;" parent="T5A34cYK0QaYjGAUa2mt-14" vertex="1">
          <mxGeometry y="52" width="160" height="26" as="geometry" />
        </mxCell>
        <mxCell id="T5A34cYK0QaYjGAUa2mt-19" value="+tel No:Â  string" style="text;strokeColor=none;fillColor=none;align=left;verticalAlign=top;spacingLeft=4;spacingRight=4;overflow=hidden;rotatable=0;points=[[0,0.5],[1,0.5]];portConstraint=eastwest;" parent="T5A34cYK0QaYjGAUa2mt-14" vertex="1">
          <mxGeometry y="78" width="160" height="26" as="geometry" />
        </mxCell>
        <mxCell id="T5A34cYK0QaYjGAUa2mt-18" value="address: string" style="text;strokeColor=none;fillColor=none;align=left;verticalAlign=top;spacingLeft=4;spacingRight=4;overflow=hidden;rotatable=0;points=[[0,0.5],[1,0.5]];portConstraint=eastwest;" parent="T5A34cYK0QaYjGAUa2mt-14" vertex="1">
          <mxGeometry y="104" width="160" height="26" as="geometry" />
        </mxCell>
        <mxCell id="T5A34cYK0QaYjGAUa2mt-16" value="" style="line;strokeWidth=1;fillColor=none;align=left;verticalAlign=middle;spacingTop=-1;spacingLeft=3;spacingRight=3;rotatable=0;labelPosition=right;points=[];portConstraint=eastwest;" parent="T5A34cYK0QaYjGAUa2mt-14" vertex="1">
          <mxGeometry y="130" width="160" height="8" as="geometry" />
        </mxCell>
        <mxCell id="T5A34cYK0QaYjGAUa2mt-17" value="+ check room availability()" style="text;strokeColor=none;fillColor=none;align=left;verticalAlign=top;spacingLeft=4;spacingRight=4;overflow=hidden;rotatable=0;points=[[0,0.5],[1,0.5]];portConstraint=eastwest;" parent="T5A34cYK0QaYjGAUa2mt-14" vertex="1">
          <mxGeometry y="138" width="160" height="26" as="geometry" />
        </mxCell>
        <mxCell id="T5A34cYK0QaYjGAUa2mt-21" value="+book Room()" style="text;strokeColor=none;fillColor=none;align=left;verticalAlign=top;spacingLeft=4;spacingRight=4;overflow=hidden;rotatable=0;points=[[0,0.5],[1,0.5]];portConstraint=eastwest;" parent="T5A34cYK0QaYjGAUa2mt-14" vertex="1">
          <mxGeometry y="164" width="160" height="26" as="geometry" />
        </mxCell>
        <mxCell id="T5A34cYK0QaYjGAUa2mt-37" value="+generate Bill()" style="text;strokeColor=none;fillColor=none;align=left;verticalAlign=top;spacingLeft=4;spacingRight=4;overflow=hidden;rotatable=0;points=[[0,0.5],[1,0.5]];portConstraint=eastwest;" parent="T5A34cYK0QaYjGAUa2mt-14" vertex="1">
          <mxGeometry y="190" width="160" height="26" as="geometry" />
        </mxCell>
        <mxCell id="T5A34cYK0QaYjGAUa2mt-22" value="+generate Bill()" style="text;strokeColor=none;fillColor=none;align=left;verticalAlign=top;spacingLeft=4;spacingRight=4;overflow=hidden;rotatable=0;points=[[0,0.5],[1,0.5]];portConstraint=eastwest;" parent="T5A34cYK0QaYjGAUa2mt-14" vertex="1">
          <mxGeometry y="216" width="160" height="26" as="geometry" />
        </mxCell>
        <mxCell id="T5A34cYK0QaYjGAUa2mt-27" value="" style="endArrow=none;html=1;rounded=0;exitX=0;exitY=0.25;exitDx=0;exitDy=0;" parent="WIyWlLk6GJQsqaUBKTNV-1" source="T5A34cYK0QaYjGAUa2mt-9" edge="1">
          <mxGeometry width="50" height="50" relative="1" as="geometry">
            <mxPoint x="420" y="150" as="sourcePoint" />
            <mxPoint x="180" y="152" as="targetPoint" />
            <Array as="points" />
          </mxGeometry>
        </mxCell>
        <mxCell id="T5A34cYK0QaYjGAUa2mt-29" value="" style="endArrow=none;html=1;rounded=0;entryX=0.488;entryY=1.154;entryDx=0;entryDy=0;entryPerimeter=0;exitX=1;exitY=0.5;exitDx=0;exitDy=0;" parent="WIyWlLk6GJQsqaUBKTNV-1" source="T5A34cYK0QaYjGAUa2mt-31" target="T5A34cYK0QaYjGAUa2mt-22" edge="1">
          <mxGeometry width="50" height="50" relative="1" as="geometry">
            <mxPoint x="828" y="210" as="sourcePoint" />
            <mxPoint x="750" y="230" as="targetPoint" />
            <Array as="points">
              <mxPoint x="608" y="299" />
            </Array>
          </mxGeometry>
        </mxCell>
        <mxCell id="T5A34cYK0QaYjGAUa2mt-30" value="Bill" style="swimlane;fontStyle=1;align=center;verticalAlign=top;childLayout=stackLayout;horizontal=1;startSize=26;horizontalStack=0;resizeParent=1;resizeParentMax=0;resizeLast=0;collapsible=1;marginBottom=0;" parent="WIyWlLk6GJQsqaUBKTNV-1" vertex="1">
          <mxGeometry x="280" y="260" width="160" height="86" as="geometry" />
        </mxCell>
        <mxCell id="T5A34cYK0QaYjGAUa2mt-31" value="+bill No: int" style="text;strokeColor=none;fillColor=none;align=left;verticalAlign=top;spacingLeft=4;spacingRight=4;overflow=hidden;rotatable=0;points=[[0,0.5],[1,0.5]];portConstraint=eastwest;" parent="T5A34cYK0QaYjGAUa2mt-30" vertex="1">
          <mxGeometry y="26" width="160" height="26" as="geometry" />
        </mxCell>
        <mxCell id="T5A34cYK0QaYjGAUa2mt-34" value="+customer Name: string" style="text;strokeColor=none;fillColor=none;align=left;verticalAlign=top;spacingLeft=4;spacingRight=4;overflow=hidden;rotatable=0;points=[[0,0.5],[1,0.5]];portConstraint=eastwest;" parent="T5A34cYK0QaYjGAUa2mt-30" vertex="1">
          <mxGeometry y="52" width="160" height="26" as="geometry" />
        </mxCell>
        <mxCell id="T5A34cYK0QaYjGAUa2mt-32" value="" style="line;strokeWidth=1;fillColor=none;align=left;verticalAlign=middle;spacingTop=-1;spacingLeft=3;spacingRight=3;rotatable=0;labelPosition=right;points=[];portConstraint=eastwest;" parent="T5A34cYK0QaYjGAUa2mt-30" vertex="1">
          <mxGeometry y="78" width="160" height="8" as="geometry" />
        </mxCell>
        <mxCell id="T5A34cYK0QaYjGAUa2mt-35" value="" style="endArrow=none;html=1;rounded=0;entryX=0;entryY=0.808;entryDx=0;entryDy=0;entryPerimeter=0;exitX=0.519;exitY=1.154;exitDx=0;exitDy=0;exitPerimeter=0;" parent="WIyWlLk6GJQsqaUBKTNV-1" source="Q7qjtp1x8WxKevpJag3L-23" target="T5A34cYK0QaYjGAUa2mt-31" edge="1">
          <mxGeometry width="50" height="50" relative="1" as="geometry">
            <mxPoint x="530" y="330" as="sourcePoint" />
            <mxPoint x="580" y="280" as="targetPoint" />
            <Array as="points">
              <mxPoint x="100" y="307" />
            </Array>
          </mxGeometry>
        </mxCell>
        <mxCell id="T5A34cYK0QaYjGAUa2mt-38" value="" style="endArrow=none;html=1;rounded=0;entryX=1;entryY=0.25;entryDx=0;entryDy=0;" parent="WIyWlLk6GJQsqaUBKTNV-1" target="T5A34cYK0QaYjGAUa2mt-9" edge="1">
          <mxGeometry width="50" height="50" relative="1" as="geometry">
            <mxPoint x="530" y="150" as="sourcePoint" />
            <mxPoint x="190" y="162" as="targetPoint" />
            <Array as="points" />
          </mxGeometry>
        </mxCell>
        <mxCell id="T5A34cYK0QaYjGAUa2mt-39" value="+1..*" style="text;html=1;align=center;verticalAlign=middle;resizable=0;points=[];autosize=1;strokeColor=none;fillColor=none;" parent="WIyWlLk6GJQsqaUBKTNV-1" vertex="1">
          <mxGeometry x="174" y="-8" width="40" height="20" as="geometry" />
        </mxCell>
        <mxCell id="T5A34cYK0QaYjGAUa2mt-41" value="+1" style="text;html=1;align=center;verticalAlign=middle;resizable=0;points=[];autosize=1;strokeColor=none;fillColor=none;" parent="WIyWlLk6GJQsqaUBKTNV-1" vertex="1">
          <mxGeometry x="255" y="-7" width="30" height="20" as="geometry" />
        </mxCell>
        <mxCell id="T5A34cYK0QaYjGAUa2mt-43" value="+1" style="text;html=1;align=center;verticalAlign=middle;resizable=0;points=[];autosize=1;strokeColor=none;fillColor=none;" parent="WIyWlLk6GJQsqaUBKTNV-1" vertex="1">
          <mxGeometry x="100" y="290" width="30" height="20" as="geometry" />
        </mxCell>
        <mxCell id="T5A34cYK0QaYjGAUa2mt-44" value="+1" style="text;html=1;align=center;verticalAlign=middle;resizable=0;points=[];autosize=1;strokeColor=none;fillColor=none;" parent="WIyWlLk6GJQsqaUBKTNV-1" vertex="1">
          <mxGeometry x="250" y="290" width="30" height="20" as="geometry" />
        </mxCell>
        <mxCell id="T5A34cYK0QaYjGAUa2mt-45" value="Generates" style="text;html=1;align=center;verticalAlign=middle;resizable=0;points=[];autosize=1;strokeColor=none;fillColor=none;" parent="WIyWlLk6GJQsqaUBKTNV-1" vertex="1">
          <mxGeometry x="495" y="280" width="70" height="20" as="geometry" />
        </mxCell>
        <mxCell id="T5A34cYK0QaYjGAUa2mt-46" value="+1" style="text;html=1;align=center;verticalAlign=middle;resizable=0;points=[];autosize=1;strokeColor=none;fillColor=none;" parent="WIyWlLk6GJQsqaUBKTNV-1" vertex="1">
          <mxGeometry x="585" y="170" width="30" height="20" as="geometry" />
        </mxCell>
        <mxCell id="T5A34cYK0QaYjGAUa2mt-47" value="+0..*" style="text;html=1;align=center;verticalAlign=middle;resizable=0;points=[];autosize=1;strokeColor=none;fillColor=none;" parent="WIyWlLk6GJQsqaUBKTNV-1" vertex="1">
          <mxGeometry x="435" y="280" width="40" height="20" as="geometry" />
        </mxCell>
        <mxCell id="T5A34cYK0QaYjGAUa2mt-48" value="Pays Bill" style="text;html=1;align=center;verticalAlign=middle;resizable=0;points=[];autosize=1;strokeColor=none;fillColor=none;" parent="WIyWlLk6GJQsqaUBKTNV-1" vertex="1">
          <mxGeometry x="158" y="290" width="60" height="20" as="geometry" />
        </mxCell>
        <mxCell id="T5A34cYK0QaYjGAUa2mt-49" value="Book" style="text;html=1;align=center;verticalAlign=middle;resizable=0;points=[];autosize=1;strokeColor=none;fillColor=none;" parent="WIyWlLk6GJQsqaUBKTNV-1" vertex="1">
          <mxGeometry x="210" y="135" width="40" height="20" as="geometry" />
        </mxCell>
        <mxCell id="T5A34cYK0QaYjGAUa2mt-50" value="Book" style="text;html=1;align=center;verticalAlign=middle;resizable=0;points=[];autosize=1;strokeColor=none;fillColor=none;" parent="WIyWlLk6GJQsqaUBKTNV-1" vertex="1">
          <mxGeometry x="460" y="131" width="40" height="20" as="geometry" />
        </mxCell>
      </root>
    </mxGraphModel>
  </diagram>
</mxfile>
